<?xml version="1.0" standalone="no"?>
<!DOCTYPE svg PUBLIC "-//W3C//DTD SVG 20010904//EN"
 "http://www.w3.org/TR/2001/REC-SVG-20010904/DTD/svg10.dtd">
<svg version="1.0" xmlns="http://www.w3.org/2000/svg"
 width="180.000000pt" height="92.000000pt" viewBox="0 0 180.000000 92.000000"
 preserveAspectRatio="xMidYMid meet">
<metadata>
Created by potrace 1.10, written by Peter Selinger 2001-2011
</metadata>
<g transform="translate(0.000000,92.000000) scale(0.100000,-0.100000)"
fill="#000000" stroke="none">
<path d="M335 691 l-130 -58 -5 -201 -5 -202 30 0 30 0 -3 142 -3 143 218 -2
218 -3 0 -140 0 -140 28 0 27 0 -2 202 -3 202 -130 57 c-71 32 -132 58 -135
58 -3 0 -63 -26 -135 -58z m208 -2 c40 -17 79 -38 88 -45 9 -8 23 -12 32 -8
25 9 52 -31 53 -81 l0 -44 -30 22 c-16 11 -26 16 -22 9 5 -8 2 -10 -8 -6 -9 3
-13 11 -9 17 13 22 10 45 -5 39 -10 -3 -13 -1 -8 6 5 8 -4 12 -31 12 -42 0
-72 -24 -67 -53 1 -10 -2 -15 -7 -11 -5 3 -7 9 -5 13 3 4 -2 17 -10 29 -22 32
-67 29 -94 -5 -12 -16 -19 -23 -16 -17 9 19 -30 46 -61 43 -15 -2 -35 1 -43 5
-12 7 -13 6 -3 -4 10 -10 8 -19 -8 -41 -19 -26 -19 -28 -2 -22 10 3 15 3 12
-1 -4 -4 -16 -9 -29 -11 -12 -2 -27 -9 -34 -14 -8 -7 -12 -1 -13 22 -4 56 5
75 37 82 16 4 30 11 30 16 0 5 6 9 13 9 7 0 29 9 50 20 20 11 37 18 37 15 0
-3 17 3 38 14 20 11 38 20 40 21 2 0 36 -14 75 -31z m-163 -125 c0 -11 -8 -14
-32 -12 -46 4 -49 28 -4 28 26 0 36 -4 36 -16z m120 1 c0 -10 -10 -15 -30 -15
-20 0 -30 5 -30 15 0 10 10 15 30 15 20 0 30 -5 30 -15z m128 3 c-7 -20 -68
-23 -68 -4 0 12 10 16 36 16 24 0 34 -4 32 -12z"/>
<path d="M948 611 c-11 -15 -28 -21 -74 -23 -51 -3 -59 -6 -59 -23 0 -18 8
-20 63 -23 46 -2 62 -7 62 -17 0 -10 -11 -15 -36 -15 -31 0 -35 -3 -32 -22 2
-19 8 -23 36 -20 26 2 32 -2 32 -18 0 -18 -7 -20 -80 -20 -73 0 -80 -2 -80
-20 0 -18 7 -20 80 -20 64 0 80 -3 80 -15 0 -13 31 -15 215 -15 l215 0 0 123
c0 82 -4 127 -12 135 -9 9 -68 12 -204 12 -180 0 -194 -1 -206 -19z m350 -20
l42 -1 0 -100 0 -100 -87 -1 c-49 -1 -128 -2 -178 -3 -49 -1 -100 2 -112 7
-20 9 -21 11 -6 33 12 20 13 27 3 39 -10 12 -10 21 -1 41 8 18 8 31 0 45 -13
25 6 53 33 46 10 -3 18 -2 18 1 0 4 55 4 122 0 68 -3 142 -7 166 -7z"/>
<path d="M1409 561 c0 -3 0 -57 1 -118 l1 -113 -135 0 c-124 0 -156 -6 -126
-25 6 -3 10 -15 10 -26 0 -18 8 -19 135 -19 127 0 135 1 135 19 0 27 39 69 70
76 36 8 89 -28 97 -65 4 -23 11 -30 28 -30 26 0 50 24 40 40 -3 5 -13 10 -21
10 -11 0 -14 15 -14 66 0 56 -5 75 -31 120 -16 29 -36 57 -42 61 -14 9 -147
12 -148 4z m123 -30 c4 -1 17 -19 28 -41 l20 -40 -68 0 -68 0 2 43 c1 23 2 42
3 42 5 0 78 -4 83 -4z m73 -142 c0 -27 -1 -45 -3 -40 -2 6 -7 9 -12 6 -5 -3
-16 2 -24 11 -9 8 -16 13 -16 10 0 -3 -11 -1 -24 4 -18 6 -33 4 -58 -8 l-33
-17 -2 30 c-1 34 15 49 34 33 10 -8 13 -7 13 3 0 11 2 11 10 -1 7 -11 12 -12
21 -3 8 8 18 9 29 3 12 -6 23 -5 36 5 28 21 29 20 29 -36z m-355 -99 c0 -5 -2
-10 -4 -10 -3 0 -8 5 -11 10 -3 6 -1 10 4 10 6 0 11 -4 11 -10z"/>
<path d="M310 408 c0 -27 2 -28 45 -28 43 0 45 1 45 30 0 29 -1 30 -45 28 -42
-1 -45 -3 -45 -30z"/>
<path d="M422 411 c1 -30 2 -31 50 -31 48 0 49 1 46 28 -3 25 -7 27 -50 30
-46 3 -47 3 -46 -27z"/>
<path d="M310 335 c0 -23 4 -25 45 -25 41 0 45 2 45 25 0 23 -4 25 -45 25 -41
0 -45 -2 -45 -25z"/>
<path d="M423 335 c0 -23 3 -25 47 -25 44 0 48 2 48 25 0 23 -4 25 -48 25 -44
0 -47 -2 -47 -25z"/>
<path d="M540 335 c0 -23 4 -25 45 -25 41 0 45 2 45 25 0 23 -4 25 -45 25 -41
0 -45 -2 -45 -25z"/>
<path d="M940 295 c0 -30 3 -35 23 -35 17 0 25 9 33 35 l11 35 -33 0 c-32 0
-34 -2 -34 -35z"/>
<path d="M1042 314 c-42 -29 -17 -104 35 -104 20 0 53 38 53 60 0 22 -33 60
-53 60 -7 0 -23 -7 -35 -16z m49 -58 c-16 -19 -41 -10 -41 14 0 24 21 31 39
14 11 -10 12 -16 2 -28z"/>
<path d="M1482 314 c-42 -29 -17 -104 35 -104 20 0 53 38 53 60 0 22 -33 60
-53 60 -7 0 -23 -7 -35 -16z m49 -58 c-16 -19 -41 -10 -41 14 0 24 21 31 39
14 11 -10 12 -16 2 -28z"/>
<path d="M310 259 c0 -28 2 -29 45 -29 43 0 45 1 45 28 0 27 -2 29 -45 30 -43
0 -45 -1 -45 -29z"/>
<path d="M429 287 c-1 -1 -3 -14 -5 -29 -3 -27 -1 -28 46 -28 47 0 49 1 47 28
-2 25 -6 27 -45 29 -23 1 -43 1 -43 0z"/>
<path d="M540 258 c0 -26 2 -28 45 -28 43 0 45 1 45 29 0 27 -2 28 -45 27 -42
0 -45 -2 -45 -28z"/>
</g>
</svg>
